<?xml version="1.0" standalone="no"?>
<!DOCTYPE svg PUBLIC "-//W3C//DTD SVG 20010904//EN"
 "http://www.w3.org/TR/2001/REC-SVG-20010904/DTD/svg10.dtd">
<svg version="1.0" xmlns="http://www.w3.org/2000/svg"
 width="796.000000pt" height="793.000000pt" viewBox="0 0 796.000000 793.000000"
 preserveAspectRatio="xMidYMid meet">

<g transform="translate(0.000000,793.000000) scale(0.100000,-0.100000)"
fill="#000000" stroke="none">
<path d="M3504 7901 c-42 -25 -75 -71 -111 -152 -33 -71 -89 -133 -142 -155
-84 -35 -193 -6 -281 76 -52 48 -132 90 -173 90 -41 0 -105 -36 -128 -73 -18
-30 -25 -52 -65 -196 -22 -78 -91 -145 -167 -161 -70 -14 -109 -5 -232 57 -81
40 -95 44 -147 41 -44 -3 -64 -10 -84 -29 -45 -42 -57 -78 -65 -195 -8 -121
-20 -161 -65 -213 -60 -71 -165 -89 -299 -51 -127 36 -206 21 -253 -50 -25
-37 -26 -63 -6 -262 8 -87 -13 -155 -63 -199 -62 -53 -93 -61 -250 -63 -154
-1 -170 -6 -216 -69 -31 -41 -27 -127 12 -214 94 -215 14 -360 -214 -388 -88
-10 -161 -41 -189 -78 -50 -69 -39 -139 42 -260 73 -110 88 -198 46 -278 -25
-49 -102 -107 -172 -129 -79 -26 -153 -73 -176 -111 -20 -33 -21 -99 -2 -142
7 -18 50 -68 94 -113 65 -66 83 -91 97 -136 35 -109 -8 -207 -117 -275 -89
-56 -139 -103 -161 -152 -17 -38 -17 -49 -7 -87 14 -50 71 -107 168 -167 109
-67 152 -166 118 -273 -13 -43 -34 -71 -97 -136 -89 -94 -109 -127 -109 -190
0 -78 51 -128 178 -173 92 -33 142 -66 176 -119 52 -81 42 -184 -29 -283 -96
-133 -107 -213 -38 -285 30 -32 89 -52 191 -68 132 -19 207 -74 232 -170 16
-59 7 -118 -32 -210 -55 -131 -43 -210 42 -268 30 -20 45 -22 165 -22 73 0
147 -5 166 -11 116 -39 173 -163 139 -304 -5 -22 -10 -67 -11 -101 -3 -150
100 -208 278 -155 134 40 238 21 300 -54 38 -45 50 -92 57 -213 7 -109 20
-146 70 -190 32 -28 44 -32 91 -32 43 0 69 8 130 39 101 52 139 65 202 63 116
-2 191 -78 223 -227 28 -135 86 -201 175 -199 60 1 102 21 174 85 70 62 112
82 187 87 47 3 70 0 101 -16 55 -29 107 -90 143 -169 49 -108 103 -153 183
-153 59 0 112 37 178 123 141 183 298 183 439 -1 66 -86 118 -122 177 -122 82
0 131 43 188 162 26 55 51 90 86 122 55 49 92 61 167 54 62 -6 108 -29 173
-87 99 -88 165 -107 239 -69 54 28 82 74 108 179 44 173 110 234 246 227 61
-3 85 -10 165 -51 74 -37 104 -47 144 -47 105 0 154 66 162 223 7 118 20 166
58 212 62 75 166 94 300 54 95 -28 185 -24 223 11 58 55 61 77 38 308 -11 107
31 187 120 228 46 21 65 24 187 24 125 0 139 2 169 23 85 57 97 134 42 267
-39 96 -45 129 -37 191 14 101 96 168 230 189 117 18 170 37 203 74 60 69 52
139 -32 265 -70 105 -85 164 -62 243 22 77 88 136 184 167 134 42 196 101 194
187 0 58 -22 94 -104 176 -80 80 -112 140 -112 213 0 88 52 159 165 226 75 44
112 82 129 135 26 79 -11 143 -125 218 -45 31 -99 74 -118 96 -90 105 -62 243
71 356 115 98 127 229 26 298 -20 14 -73 37 -118 53 -154 53 -226 162 -192
289 7 28 34 81 59 117 59 87 81 146 74 194 -14 82 -76 124 -216 147 -113 18
-175 48 -218 104 -57 75 -54 145 12 317 41 107 27 173 -49 229 -25 19 -42 21
-171 22 -128 1 -147 3 -186 23 -58 30 -77 48 -102 96 -23 44 -25 99 -12 275 6
89 5 97 -17 130 -47 70 -132 87 -250 50 -209 -66 -357 26 -358 221 0 183 -54
269 -168 269 -40 0 -69 -10 -151 -51 -89 -45 -108 -52 -163 -52 -127 -1 -205
74 -238 228 -28 135 -86 201 -175 199 -60 -1 -95 -18 -170 -83 -73 -64 -116
-84 -191 -89 -104 -7 -174 45 -239 178 -58 118 -107 160 -186 160 -60 0 -116
-37 -173 -113 -54 -75 -98 -111 -157 -132 -109 -39 -200 7 -311 155 -63 84
-163 114 -234 71z m816 -817 c278 -34 398 -59 618 -125 989 -296 1786 -1074
2117 -2064 117 -349 160 -657 152 -1068 -4 -221 -9 -286 -31 -416 -62 -360
-155 -644 -314 -956 -240 -469 -615 -891 -1062 -1194 -413 -280 -876 -457
-1385 -528 -185 -25 -655 -25 -840 0 -484 68 -948 241 -1342 500 -221 145
-446 334 -591 495 l-73 81 33 5 c18 3 123 8 233 11 110 3 227 8 260 11 89 9
388 -31 443 -59 23 -12 84 -59 135 -104 114 -102 333 -258 448 -317 95 -50
214 -87 334 -105 44 -7 139 -21 210 -32 316 -48 470 -63 665 -63 161 -1 205 2
255 17 197 60 360 242 382 427 l8 65 55 29 c79 42 198 165 242 251 58 114 72
169 73 277 0 92 1 97 25 111 45 27 146 141 190 215 69 118 104 291 82 405
l-10 48 53 50 c134 126 187 350 135 568 -35 145 -100 245 -214 326 -123 87
-254 133 -516 179 -357 64 -529 120 -621 203 -119 108 -117 260 11 636 117
346 136 464 106 678 -43 310 -174 561 -376 722 -284 227 -624 185 -735 -90
-39 -99 -47 -176 -40 -403 8 -228 0 -314 -41 -450 -60 -200 -188 -408 -453
-740 -302 -377 -402 -483 -493 -525 -85 -38 -231 -68 -318 -64 -41 2 -360 2
-709 0 l-634 -3 7 103 c15 208 71 482 147 710 229 691 677 1270 1291 1672 454
298 938 465 1498 517 96 9 506 5 590 -6z m-400 -920 c85 -39 190 -154 245
-267 100 -207 121 -406 65 -619 -16 -62 -54 -187 -85 -278 -71 -210 -95 -324
-95 -452 0 -157 40 -275 133 -395 119 -152 298 -244 562 -287 331 -55 534
-110 618 -168 130 -88 176 -188 142 -304 -21 -72 -56 -107 -129 -130 -66 -21
-110 -63 -126 -123 -13 -49 -5 -90 33 -169 27 -57 29 -70 25 -140 -8 -130 -62
-209 -180 -261 -111 -49 -121 -56 -145 -98 -30 -51 -30 -117 -1 -163 49 -78
19 -226 -62 -305 -37 -36 -43 -39 -111 -42 -85 -4 -141 -30 -176 -82 -27 -39
-29 -81 -8 -141 8 -23 15 -57 15 -74 -1 -42 -33 -111 -62 -129 -69 -45 -285
-51 -578 -18 -410 46 -677 101 -774 159 -84 50 -289 204 -366 275 -142 129
-240 175 -405 188 -253 20 -357 98 -414 311 -37 136 -46 241 -46 543 0 317 11
432 52 555 49 150 83 176 285 219 73 16 162 40 196 54 112 46 238 142 342 262
19 22 67 76 106 120 220 249 558 724 661 929 122 243 142 362 133 806 -3 185
2 221 34 242 21 14 61 8 116 -18z"/>
</g>
</svg>
