<?xml version="1.0" standalone="no"?>
<!DOCTYPE svg PUBLIC "-//W3C//DTD SVG 20010904//EN"
 "http://www.w3.org/TR/2001/REC-SVG-20010904/DTD/svg10.dtd">
<svg version="1.0" xmlns="http://www.w3.org/2000/svg"
 width="790.000000pt" height="791.000000pt" viewBox="0 0 790.000000 791.000000"
 preserveAspectRatio="xMidYMid meet">

<g transform="translate(0.000000,791.000000) scale(0.100000,-0.100000)"
fill="#000000" stroke="none">
<path d="M4860 7509 c-107 -12 -307 -56 -430 -94 -822 -254 -1454 -959 -1619
-1805 -34 -176 -41 -253 -41 -460 0 -206 7 -283 41 -460 74 -382 249 -751 497
-1050 l79 -96 99 -18 c188 -35 277 -68 684 -259 124 -58 243 -110 265 -116 90
-23 274 -51 442 -66 267 -23 349 -33 573 -71 226 -39 360 -66 433 -90 47 -16
49 -16 130 17 208 82 450 225 632 372 181 146 388 384 523 603 168 271 286
612 328 944 19 151 18 438 -1 587 -58 438 -226 837 -501 1185 -89 113 -308
325 -424 412 -345 256 -753 419 -1165 466 -106 12 -437 11 -545 -1z m910 -812
c359 -61 561 -202 690 -480 167 -360 93 -821 -175 -1092 -92 -94 -172 -144
-304 -192 -198 -72 -448 -92 -1046 -87 -143 2 -281 0 -307 -3 l-48 -6 0 -208
0 -209 619 0 c550 0 621 -2 635 -16 13 -13 16 -43 16 -173 0 -109 -4 -161 -12
-169 -9 -9 -164 -12 -635 -12 l-623 0 0 -223 c0 -160 -3 -226 -12 -235 -8 -8
-68 -12 -204 -12 -166 0 -193 2 -205 17 -10 12 -14 54 -15 162 0 80 -2 179 -2
219 l-2 72 -109 0 c-87 0 -111 3 -122 16 -10 12 -13 57 -13 171 0 191 -6 183
143 183 l106 0 0 218 0 217 -112 3 c-88 2 -114 6 -125 19 -10 12 -13 54 -11
172 1 135 4 157 19 168 12 9 53 13 121 13 l103 0 0 674 c0 370 3 701 7 735 5
51 10 64 27 72 12 5 341 7 766 5 595 -3 762 -7 830 -19z"/>
<path d="M4580 5786 l0 -546 448 0 c560 0 666 11 810 81 209 102 307 369 236
642 -30 117 -114 231 -215 290 -25 15 -81 37 -125 48 -75 21 -107 22 -616 26
l-538 5 0 -546z"/>
<path d="M443 3500 c-67 -40 -63 36 -63 -1185 0 -1220 -4 -1142 63 -1184 33
-20 47 -21 337 -21 339 0 351 2 392 69 l23 36 0 1100 c0 1040 -1 1102 -18
1133 -10 18 -32 42 -50 52 -30 19 -52 20 -342 20 -290 0 -312 -1 -342 -20z"/>
<path d="M2715 3393 c-304 -12 -784 -94 -1110 -188 -131 -38 -159 -54 -186
-105 -18 -33 -19 -74 -19 -779 0 -733 0 -745 21 -787 32 -66 65 -81 234 -104
211 -29 233 -36 535 -173 154 -70 228 -105 650 -309 488 -236 1011 -470 1170
-524 83 -28 89 -29 295 -28 160 1 243 6 350 22 77 12 199 31 270 41 72 11 202
32 290 46 434 69 674 105 780 116 55 5 126 17 158 25 122 31 284 121 489 270
37 27 102 71 145 98 412 261 629 437 687 558 35 72 46 167 23 202 -9 13 -37
32 -62 41 -49 19 -53 26 -28 46 9 8 36 40 60 73 38 52 43 64 43 113 0 71 -20
113 -81 167 -190 170 -575 98 -874 -163 -276 -241 -435 -305 -892 -356 -402
-46 -658 -44 -891 6 -104 23 -165 44 -361 128 -75 32 -170 71 -211 87 l-75 28
60 9 c124 19 461 13 995 -18 47 -2 135 -7 195 -10 61 -4 190 -15 288 -26 199
-22 253 -18 343 26 114 56 247 254 261 387 14 142 -105 292 -294 366 -260 102
-688 181 -1153 212 -241 16 -383 37 -464 70 -39 16 -168 76 -286 133 -405 198
-680 275 -1055 297 -93 5 -183 9 -200 8 -16 -1 -61 -3 -100 -5z"/>
</g>
</svg>
