<?xml version="1.0" standalone="no"?>
<!DOCTYPE svg PUBLIC "-//W3C//DTD SVG 20010904//EN"
 "http://www.w3.org/TR/2001/REC-SVG-20010904/DTD/svg10.dtd">
<svg version="1.0" xmlns="http://www.w3.org/2000/svg"
 width="787.000000pt" height="791.000000pt" viewBox="0 0 787.000000 791.000000"
 preserveAspectRatio="xMidYMid meet">

<g transform="translate(0.000000,791.000000) scale(0.100000,-0.100000)"
fill="#000000" stroke="none">
<path d="M673 7625 c-192 -42 -356 -211 -398 -412 -13 -58 -15 -488 -15 -3003
0 -3223 -4 -3001 61 -3137 40 -85 150 -198 229 -236 123 -59 75 -57 1272 -57
l1098 0 0 258 0 259 -352 6 c-194 4 -538 7 -764 7 -226 0 -546 3 -712 7 l-302
6 0 2896 0 2896 1072 -2 c590 -2 1812 -5 2716 -9 l1642 -6 0 -1094 0 -1094
265 0 266 0 -3 1143 -3 1142 -22 65 c-66 194 -223 336 -407 369 -42 8 -891 11
-2820 10 -2283 0 -2772 -3 -2823 -14z"/>
<path d="M1537 6258 c-3 -62 -3 -179 0 -260 l6 -148 1834 0 1833 0 0 260 0
260 -1834 0 -1833 0 -6 -112z"/>
<path d="M1537 5093 c-2 -5 -3 -120 -2 -258 l1 -250 1482 -3 1482 -2 0 260 0
260 -1479 0 c-814 0 -1482 -3 -1484 -7z"/>
<path d="M5219 4605 c-346 -56 -599 -185 -839 -425 -225 -224 -338 -431 -412
-751 -30 -129 -33 -451 -5 -577 20 -88 64 -234 90 -293 l16 -35 -236 -425
c-604 -1090 -583 -1051 -583 -1094 0 -72 61 -135 130 -135 11 0 169 34 350 75
302 69 370 82 370 71 0 -9 212 -603 230 -642 23 -53 70 -84 125 -84 74 0 90
19 217 251 130 239 441 812 537 990 l62 115 146 -1 147 -1 76 -140 c42 -76
202 -368 354 -649 153 -280 290 -523 306 -539 49 -51 141 -46 192 11 10 10 71
167 137 348 71 198 124 331 133 333 7 1 110 -20 228 -48 463 -110 470 -111
511 -100 64 18 113 100 94 159 -6 19 -74 147 -433 816 -41 77 -112 210 -158
295 -45 85 -112 209 -147 275 l-65 120 20 50 c36 87 65 189 84 291 26 137 26
402 1 534 -93 477 -400 873 -838 1079 -107 51 -228 90 -359 116 -108 22 -375
28 -481 10z m398 -539 c197 -42 360 -132 500 -278 447 -466 300 -1236 -288
-1512 -338 -159 -717 -110 -1011 131 -138 112 -259 299 -310 478 -20 69 -23
103 -23 250 0 199 16 270 92 422 127 256 362 441 638 503 101 23 306 26 402 6z
m-1166 -2022 c60 -55 187 -142 266 -183 23 -11 44 -25 47 -30 5 -7 -187 -368
-291 -550 l-26 -44 -46 129 c-60 165 -57 163 -212 129 -63 -14 -122 -28 -132
-31 -13 -4 -18 -2 -15 8 3 14 341 627 346 628 1 0 29 -25 63 -56z m2233 -327
c109 -197 196 -361 193 -364 -3 -2 -67 9 -143 26 -158 36 -187 38 -212 13 -10
-10 -38 -72 -62 -138 -24 -65 -47 -130 -52 -143 -5 -14 -12 -20 -17 -15 -13
14 -371 674 -371 684 0 4 33 26 74 49 107 58 242 152 311 215 45 40 63 51 71
43 6 -7 100 -173 208 -370z"/>
<path d="M1540 3823 c0 -10 -2 -90 -5 -178 -2 -88 -2 -199 2 -247 l6 -88 987
0 987 0 6 78 c5 58 3 307 -3 445 0 4 -445 7 -990 7 -936 0 -990 -1 -990 -17z"/>
<path d="M1538 2318 c-2 -139 -2 -256 0 -260 2 -5 448 -8 993 -8 785 0 989 3
989 13 0 6 2 86 5 177 3 91 2 202 -1 248 l-7 82 -988 0 -988 0 -3 -252z"/>
</g>
</svg>
