<?xml version="1.0" standalone="no"?>
<!DOCTYPE svg PUBLIC "-//W3C//DTD SVG 20010904//EN"
 "http://www.w3.org/TR/2001/REC-SVG-20010904/DTD/svg10.dtd">
<svg version="1.0" xmlns="http://www.w3.org/2000/svg"
 width="792.000000pt" height="791.000000pt" viewBox="0 0 792.000000 791.000000"
 preserveAspectRatio="xMidYMid meet">

<g transform="translate(0.000000,791.000000) scale(0.100000,-0.100000)"
fill="#000000" stroke="none">
<path d="M2897 6883 c-105 -192 -305 -558 -384 -705 -62 -116 -78 -137 -101
-142 -15 -3 -101 -19 -192 -36 -91 -17 -232 -44 -315 -60 -82 -16 -238 -45
-345 -65 -107 -21 -196 -38 -197 -39 -1 -1 4 -51 12 -112 53 -414 77 -602 100
-764 14 -102 25 -191 25 -198 0 -12 -105 -127 -475 -517 -238 -252 -265 -281
-265 -292 0 -10 143 -164 559 -602 86 -90 162 -173 170 -183 11 -16 11 -39 -3
-146 -9 -70 -30 -230 -47 -357 -16 -126 -40 -311 -53 -410 -13 -99 -23 -181
-21 -182 2 -4 177 -37 805 -155 91 -17 189 -36 218 -42 l54 -11 145 -265 c80
-146 165 -301 189 -345 24 -44 76 -140 115 -212 40 -73 75 -133 79 -133 4 0
90 40 191 89 101 48 209 100 239 114 30 13 165 77 299 141 134 64 250 116 256
116 12 0 115 -48 775 -359 118 -55 215 -101 216 -101 2 0 34 57 72 128 148
269 318 582 380 697 35 66 68 124 72 128 4 4 54 17 111 27 410 76 963 181 966
183 1 1 -5 49 -12 107 -42 325 -97 751 -111 857 l-17 122 239 253 c131 139
272 289 314 333 42 44 104 110 138 146 l62 66 -207 219 c-113 120 -277 293
-362 383 -86 90 -162 173 -170 183 -11 17 -11 38 2 141 9 67 34 262 56 432 22
171 47 357 55 415 7 58 12 106 11 108 -2 3 -92 20 -445 86 -422 80 -517 98
-574 109 l-58 12 -145 265 c-80 146 -161 294 -181 330 -71 132 -195 355 -198
359 -2 2 -52 -19 -111 -47 -149 -70 -314 -149 -612 -291 -140 -66 -260 -121
-267 -121 -6 0 -227 102 -490 226 -264 124 -484 228 -490 231 -7 2 -40 -47
-77 -114z m1253 -838 c328 -24 674 -147 971 -344 820 -544 1152 -1606 787
-2520 -280 -700 -921 -1205 -1658 -1306 -133 -18 -431 -21 -560 -5 -223 28
-436 93 -655 200 -430 209 -750 528 -964 961 -254 512 -285 1118 -85 1656 182
491 556 908 1022 1142 362 181 715 248 1142 216z"/>
<path d="M3800 5653 c-252 -18 -563 -128 -785 -276 -823 -552 -1012 -1664
-417 -2452 75 -99 232 -256 331 -331 483 -363 1121 -444 1677 -213 429 179
762 516 932 944 76 191 110 356 119 564 19 482 -158 931 -504 1273 -363 361
-829 530 -1353 491z m1016 -876 c28 -23 95 -77 148 -121 53 -43 96 -82 94 -87
-3 -8 -142 -181 -348 -433 -100 -122 -435 -535 -655 -806 -38 -48 -84 -104
-102 -125 l-32 -38 -48 39 c-46 37 -347 288 -710 593 -95 79 -173 147 -173
150 0 3 44 58 98 121 53 64 109 130 124 148 l27 32 212 -177 c456 -381 410
-346 430 -326 10 10 62 73 116 139 54 67 175 215 268 330 201 246 333 408 424
521 36 46 68 83 71 83 3 -1 28 -20 56 -43z"/>
</g>
</svg>
